<?xml version="1.0" encoding="UTF-8"?>
<svg xmlns="http://www.w3.org/2000/svg" width="512px" height="512px" style="shape-rendering:geometricPrecision; text-rendering:geometricPrecision; image-rendering:optimizeQuality; fill-rule:evenodd; clip-rule:evenodd" >
<g><path style="opacity:0.935" fill="#000000" d="M 134.5,-0.5 C 215.167,-0.5 295.833,-0.5 376.5,-0.5C 439.933,9.75874 482.766,45.0921 505,105.5C 507.676,115.19 509.843,124.857 511.5,134.5C 511.5,142.833 511.5,151.167 511.5,159.5C 507.142,172.22 498.142,179.553 484.5,181.5C 494.6,200.097 492.6,217.264 478.5,233C 473.783,237.027 468.449,240.027 462.5,242C 473.164,257.982 473.164,273.982 462.5,290C 485.671,299.172 494.505,316.005 489,340.5C 484.432,353.401 475.599,361.901 462.5,366C 472.718,381.152 473.052,396.486 463.5,412C 471.167,412.333 478.833,412.667 486.5,413C 499.379,415.056 507.713,422.222 511.5,434.5C 511.5,440.833 511.5,447.167 511.5,453.5C 503.833,484.5 484.5,503.833 453.5,511.5C 321.5,511.5 189.5,511.5 57.5,511.5C 26.5,503.833 7.16667,484.5 -0.5,453.5C -0.5,446.833 -0.5,440.167 -0.5,433.5C 4.19655,421.127 13.1965,413.96 26.5,412C 17.6021,397.65 17.4354,383.15 26,368.5C 31.7888,360.717 39.2888,355.217 48.5,352C 37.8359,335.982 37.8359,319.982 48.5,304C 25.335,294.841 16.5017,278.008 22,253.5C 26.6814,240.652 35.5147,231.986 48.5,227.5C 38.2362,212.396 37.9029,197.063 47.5,181.5C 37.445,180.925 27.445,180.092 17.5,179C 8.16292,175.433 2.16292,168.933 -0.5,159.5C -0.5,151.167 -0.5,142.833 -0.5,134.5C 9.75874,71.0671 45.0921,28.2337 105.5,6C 115.19,3.32406 124.857,1.15739 134.5,-0.5 Z M 141.5,15.5 C 217.501,15.3333 293.501,15.5 369.5,16C 423.567,22.4376 462.067,50.271 485,99.5C 492.996,118.137 495.996,137.47 494,157.5C 492.332,161.165 489.499,163.332 485.5,164C 331.111,164.996 176.778,164.662 22.5,163C 17.1122,159.534 14.7788,154.534 15.5,148C 18.9815,98.3432 41.6482,60.3432 83.5,34C 101.683,23.7959 121.017,17.6292 141.5,15.5 Z M 119.5,181.5 C 192.999,180.334 266.666,180.168 340.5,181C 322.544,205.745 304.711,230.578 287,255.5C 231.219,230.692 175.386,206.026 119.5,181.5 Z M 360.5,180.5 C 393.198,180.052 425.865,180.552 458.5,182C 473.933,189.293 478.1,200.793 471,216.5C 467.2,221.312 462.366,224.479 456.5,226C 413.833,226.667 371.167,226.667 328.5,226C 339.801,211.213 350.467,196.046 360.5,180.5 Z M 73.5,181.5 C 75.8568,181.337 78.1902,181.503 80.5,182C 113.417,196.861 146.417,211.528 179.5,226C 144.5,226.667 109.5,226.667 74.5,226C 61.2203,221.613 55.387,212.447 57,198.5C 60.0191,190.316 65.5191,184.649 73.5,181.5 Z M 52.5,243.5 C 108.501,243.333 164.501,243.5 220.5,244C 243.727,254.447 267.06,264.614 290.5,274.5C 293.43,273.453 295.93,271.787 298,269.5C 303.833,261.167 309.667,252.833 315.5,244.5C 356.496,243.333 397.496,243.167 438.5,244C 454.322,251.124 458.489,262.624 451,278.5C 447.469,283.705 442.636,286.871 436.5,288C 309.167,288.667 181.833,288.667 54.5,288C 39.443,283.055 33.943,272.888 38,257.5C 40.8317,250.684 45.665,246.017 52.5,243.5 Z M 74.5,305.5 C 96.8358,305.333 119.169,305.5 141.5,306C 174.833,320.667 208.167,335.333 241.5,350C 186.167,350.667 130.833,350.667 75.5,350C 64.4046,346.899 58.4046,339.566 57.5,328C 58.5073,316.844 64.174,309.344 74.5,305.5 Z M 183.5,306.5 C 255.999,305.334 328.666,305.168 401.5,306C 384.189,330.803 366.522,355.303 348.5,379.5C 293.596,354.88 238.596,330.547 183.5,306.5 Z M 422.5,305.5 C 434.171,305.333 445.838,305.5 457.5,306C 473.774,312.815 478.274,324.315 471,340.5C 467.586,345.252 463.086,348.419 457.5,350C 435.167,350.667 412.833,350.667 390.5,350C 401.385,335.288 412.052,320.455 422.5,305.5 Z M 53.5,367.5 C 129.501,367.333 205.501,367.5 281.5,368C 304.837,378.586 328.337,388.753 352,398.5C 355.425,398.081 358.091,396.414 360,393.5C 365.8,384.735 371.966,376.235 378.5,368C 397.833,367.333 417.167,367.333 436.5,368C 451.697,373.56 456.863,384.06 452,399.5C 448.911,406.256 443.745,410.423 436.5,412C 308.833,412.667 181.167,412.667 53.5,412C 37.2257,405.185 32.7257,393.685 40,377.5C 43.5551,372.763 48.0551,369.43 53.5,367.5 Z M 24.5,429.5 C 178.5,429.333 332.5,429.5 486.5,430C 492.619,432.4 495.619,436.9 495.5,443.5C 492.297,472.091 476.63,489.257 448.5,495C 435.833,495.667 423.167,495.667 410.5,495C 417.032,488.802 423.199,482.302 429,475.5C 429.979,469.11 427.312,465.444 421,464.5C 419.033,464.542 417.199,465.042 415.5,466C 405.833,475.667 396.167,485.333 386.5,495C 370.5,495.667 354.5,495.667 338.5,495C 344.699,489.136 350.532,482.969 356,476.5C 357.553,467.386 353.72,463.553 344.5,465C 334.5,475 324.5,485 314.5,495C 298.167,495.667 281.833,495.667 265.5,495C 272.032,488.802 278.199,482.302 284,475.5C 284.441,465.623 279.941,462.456 270.5,466C 260.833,475.667 251.167,485.333 241.5,495C 225.5,495.667 209.5,495.667 193.5,495C 200.407,488.764 206.573,481.931 212,474.5C 211.402,465.578 206.902,462.745 198.5,466C 188.833,475.667 179.167,485.333 169.5,495C 153.167,495.667 136.833,495.667 120.5,495C 126.667,488.833 132.833,482.667 139,476.5C 139.568,465.197 134.735,462.031 124.5,467C 115.136,476.03 106.136,485.363 97.5,495C 85.8333,495.667 74.1667,495.667 62.5,495C 34.3698,489.257 18.7031,472.091 15.5,443.5C 15.5027,436.812 18.5027,432.145 24.5,429.5 Z"/></g>
<g><path style="opacity:0.909" fill="#000000" d="M 148.5,40.5 C 158.204,40.0248 161.704,44.3581 159,53.5C 130.833,81.6667 102.667,109.833 74.5,138C 63.4907,140.654 59.6574,136.487 63,125.5C 91.395,96.938 119.895,68.6047 148.5,40.5 Z"/></g>
<g><path style="opacity:0.92" fill="#000000" d="M 220.5,40.5 C 229.658,39.4906 233.492,43.4906 232,52.5C 220.833,65 209,76.8333 196.5,88C 191.595,91.1481 187.429,90.3147 184,85.5C 183.333,82.8333 183.333,80.1667 184,77.5C 196.369,65.2985 208.535,52.9651 220.5,40.5 Z"/></g>
<g><path style="opacity:0.909" fill="#000000" d="M 293.5,40.5 C 303.526,39.6857 307.026,44.019 304,53.5C 275.833,81.6667 247.667,109.833 219.5,138C 208.454,140.618 204.621,136.452 208,125.5C 236.395,96.938 264.895,68.6047 293.5,40.5 Z"/></g>
<g><path style="opacity:0.91" fill="#000000" d="M 365.5,40.5 C 375.562,39.7184 379.062,44.0517 376,53.5C 347.833,81.6667 319.667,109.833 291.5,138C 284.126,141.148 279.792,138.814 278.5,131C 278.384,128.456 279.217,126.289 281,124.5C 309.062,96.2713 337.228,68.2713 365.5,40.5 Z"/></g>
<g><path style="opacity:0.91" fill="#000000" d="M 416.5,61.5 C 427.574,60.6745 431.074,65.3411 427,75.5C 406.5,96 386,116.5 365.5,137C 358.212,141.355 353.212,139.522 350.5,131.5C 350.899,129.803 351.399,128.137 352,126.5C 373.702,104.965 395.202,83.2986 416.5,61.5 Z"/></g>
<g><path style="opacity:0.925" fill="#000000" d="M 163.5,99.5 C 171.84,100.327 174.673,104.66 172,112.5C 163.167,121.333 154.333,130.167 145.5,139C 136.333,140.5 132.5,136.667 134,127.5C 143.45,117.544 153.284,108.211 163.5,99.5 Z"/></g>
</svg>
