<?xml version="1.0" encoding="UTF-8"?>
<svg xmlns="http://www.w3.org/2000/svg" width="199px" height="210px" viewBox="0 0 199 209">
<g id="surface1">
<path style=" stroke:none;fill-rule:nonzero;fill:rgb(70.196078%,70.196078%,70.196078%);fill-opacity:1;" d="M 99.195312 0.265625 L 0.660156 34.789062 L 16.230469 163.320312 L 99.296875 208.777344 L 182.792969 162.703125 L 198.359375 34.179688 Z M 99.195312 0.265625 "/>
<path style=" stroke:none;fill-rule:nonzero;fill:rgb(65.098039%,7.058824%,5.098039%);fill-opacity:1;" d="M 188.53125 41.605469 L 98.964844 11.195312 L 98.964844 197.917969 L 174.023438 156.554688 Z M 188.53125 41.605469 "/>
<path style=" stroke:none;fill-rule:nonzero;fill:rgb(86.666667%,10.588235%,8.627451%);fill-opacity:1;" d="M 11.71875 42.152344 L 25.058594 157.105469 L 98.960938 197.917969 L 98.960938 11.191406 Z M 11.71875 42.152344 "/>
<path style=" stroke:none;fill-rule:nonzero;fill:rgb(94.901961%,94.901961%,94.901961%);fill-opacity:1;" d="M 123.617188 110.597656 L 98.964844 122.074219 L 72.976562 122.074219 L 60.761719 152.496094 L 38.042969 152.914062 L 98.964844 17.976562 Z M 121.234375 104.816406 L 99.128906 61.242188 L 80.992188 104.066406 L 98.960938 104.066406 Z M 121.234375 104.816406 "/>
<path style=" stroke:none;fill-rule:nonzero;fill:rgb(70.196078%,70.196078%,70.196078%);fill-opacity:1;" d="M 98.960938 17.976562 L 99.125 61.242188 L 119.703125 104.101562 L 99.007812 104.101562 L 98.960938 122.046875 L 127.578125 122.074219 L 140.949219 152.917969 L 162.691406 153.320312 Z M 98.960938 17.976562 "/>
</g>
</svg>
