<svg id="Layer_1" xmlns="http://www.w3.org/2000/svg" x="0px" y="0px"
	 width="100%" viewBox="0 0 217 233" enable-background="new 0 0 217 233">
<path fill="#FB8C01" opacity="1.000000" stroke="none"
	d="
M218.000000,40.000000
	C218.000000,41.066788 218.000000,42.133575 217.642868,43.786194
	C214.525085,67.812263 211.776260,91.253899 209.000275,114.692322
	C206.439301,136.315063 203.921951,157.943710 201.143600,179.538635
	C200.902786,181.410492 199.248657,183.740387 197.584717,184.690002
	C181.433014,193.907745 165.114014,202.831589 148.893372,211.929550
	C135.892548,219.221558 122.961830,226.638504 110.000000,234.000000
	C110.000000,234.000000 109.500000,234.000000 109.178482,233.822769
	C108.856956,233.645538 108.837982,233.263763 108.876343,232.779816
	C108.953995,214.025009 108.952271,195.753845 109.085411,177.483673
	C109.101723,175.245407 109.840424,173.012405 110.588654,170.858917
	C114.224968,172.514847 117.610657,173.922531 120.782722,175.709442
	C123.976822,177.508728 126.547775,177.537521 129.858383,175.425980
	C141.339645,168.103134 153.091400,161.204712 164.727371,154.123688
	C166.203094,153.225647 167.602554,152.202301 169.858414,150.684616
	C160.716217,146.502716 152.465851,142.728760 144.311630,138.638702
	C152.696594,133.145844 160.985413,127.969063 169.682327,122.537422
	C160.987457,118.204414 152.710388,114.079613 144.641327,109.655792
	C152.969437,104.369728 161.089523,99.382683 169.812302,94.025497
	C167.727127,92.985779 166.438919,92.329712 165.139160,91.697418
	C146.371613,82.567566 127.602509,73.440903 108.870926,63.826309
	C108.949615,44.924507 108.928596,26.509228 109.120247,8.096164
	C109.141655,6.039645 110.370728,3.995696 111.418533,1.964122
	C123.040619,5.974405 134.293945,9.938498 145.525146,13.964322
	C169.689468,22.626032 193.842407,31.319523 218.000000,40.000000
z"/>
<path fill="#FFA726" opacity="1.000000" stroke="none"
	d="
M111.039742,1.945918
	C110.370728,3.995696 109.141655,6.039645 109.120247,8.096164
	C108.928596,26.509228 108.949615,44.924507 108.513809,63.750141
	C104.227379,62.328941 100.239273,60.671227 96.477089,58.602646
	C94.004135,57.242928 92.178703,57.338131 89.753548,58.885704
	C79.418785,65.480659 68.919052,71.816849 58.489937,78.264320
	C55.600033,80.050903 52.745991,81.895508 49.130337,84.185417
	C58.033939,88.386124 66.070503,92.177757 74.086128,96.326828
	C65.992165,101.881134 57.919144,107.078003 49.478664,112.511421
	C57.989243,116.769501 66.133453,120.844276 74.091217,125.223099
	C65.964668,130.530975 58.024551,135.534821 49.343300,141.005707
	C51.853134,142.272278 53.443501,143.098755 55.054012,143.883926
	C73.449020,152.851898 91.847099,161.813583 110.244347,170.776962
	C109.840424,173.012405 109.101723,175.245407 109.085411,177.483673
	C108.952271,195.753845 108.953995,214.025009 108.520416,232.729950
	C78.770576,216.849960 49.382790,200.592926 20.143089,184.073792
	C18.467461,183.127121 17.323740,180.119888 17.071039,177.939682
	C12.493601,138.447311 8.121994,98.931114 3.616206,59.430302
	C2.988304,53.925682 1.883851,48.475422 1.000000,43.000000
	C1.000000,41.933331 1.000000,40.866661 1.393203,39.459129
	C3.379147,38.683109 5.009007,38.351707 6.559042,37.797173
	C28.434814,29.971056 50.314167,22.154488 72.161560,14.249679
	C84.137848,9.916423 96.055763,5.421838 108.000000,1.000000
	C108.750000,1.000000 109.500000,1.000000 110.560989,1.239586
	C110.871979,1.479172 111.039742,1.945917 111.039742,1.945918
z"/>
<path fill="#FFFEFD" opacity="1.000000" stroke="none"
	d="
M110.468658,234.000000
	C122.961830,226.638504 135.892548,219.221558 148.893372,211.929550
	C165.114014,202.831589 181.433014,193.907745 197.584717,184.690002
	C199.248657,183.740387 200.902786,181.410492 201.143600,179.538635
	C203.921951,157.943710 206.439301,136.315063 209.000275,114.692322
	C211.776260,91.253899 214.525085,67.812263 217.642868,44.186012
	C218.000000,107.240234 218.000000,170.480469 218.000000,234.000000
	C182.312927,234.000000 146.625122,234.000000 110.468658,234.000000
z"/>
<path fill="#FFFEFE" opacity="1.000000" stroke="none"
	d="
M1.000000,43.468658
	C1.883851,48.475422 2.988304,53.925682 3.616206,59.430302
	C8.121994,98.931114 12.493601,138.447311 17.071039,177.939682
	C17.323740,180.119888 18.467461,183.127121 20.143089,184.073792
	C49.382790,200.592926 78.770576,216.849960 108.482056,233.213898
	C108.837982,233.263763 108.856956,233.645538 108.928482,233.822769
	C73.052734,234.000000 37.105469,234.000000 1.000000,234.000000
	C1.000000,170.645859 1.000000,107.291588 1.000000,43.468658
z"/>
<path fill="#FFFEFD" opacity="1.000000" stroke="none"
	d="
M111.418533,1.964121
	C111.039742,1.945917 110.871979,1.479172 110.935989,1.239586
	C146.559479,1.000000 182.118942,1.000000 218.000000,1.000000
	C218.000000,13.685750 218.000000,26.374216 218.000000,39.531342
	C193.842407,31.319523 169.689468,22.626032 145.525146,13.964322
	C134.293945,9.938498 123.040619,5.974405 111.418533,1.964121
z"/>
<path fill="#FFFEFE" opacity="1.000000" stroke="none"
	d="
M107.531342,1.000000
	C96.055763,5.421838 84.137848,9.916423 72.161560,14.249679
	C50.314167,22.154488 28.434814,29.971056 6.559042,37.797173
	C5.009007,38.351707 3.379147,38.683109 1.393203,39.059135
	C1.000000,26.371668 1.000000,13.743336 1.000000,1.000000
	C36.354149,1.000000 71.708420,1.000000 107.531342,1.000000
z"/>
<path fill="#FFFEFE" opacity="1.000000" stroke="none"
	d="
M74.107063,95.969406
	C66.070503,92.177757 58.033939,88.386124 49.130337,84.185417
	C52.745991,81.895508 55.600033,80.050903 58.489937,78.264320
	C68.919052,71.816849 79.418785,65.480659 89.753548,58.885704
	C92.178703,57.338131 94.004135,57.242928 96.477089,58.602646
	C100.239273,60.671227 104.227379,62.328941 108.476654,64.237320
	C127.602509,73.440903 146.371613,82.567566 165.139160,91.697418
	C166.438919,92.329712 167.727127,92.985779 169.812302,94.025497
	C161.089523,99.382683 152.969437,104.369728 144.331894,109.746117
	C138.825668,113.121620 133.961075,116.354324 128.782288,118.963348
	C126.910194,119.906494 123.880386,120.210068 122.066948,119.351723
	C105.992432,111.743286 90.072578,103.808113 74.107063,95.969406
z"/>
<path fill="#FFDFB1" opacity="1.000000" stroke="none"
	d="
M110.588654,170.858917
	C91.847099,161.813583 73.449020,152.851898 55.054012,143.883926
	C53.443501,143.098755 51.853134,142.272278 49.343300,141.005707
	C58.024551,135.534821 65.964668,130.530975 74.427185,125.301514
	C89.895042,132.336960 104.893387,139.492416 119.749565,146.931763
	C123.566643,148.843185 126.606430,149.130936 130.330566,146.614716
	C134.692688,143.667450 139.564651,141.474792 144.215469,138.954803
	C152.465851,142.728760 160.716217,146.502716 169.858414,150.684616
	C167.602554,152.202301 166.203094,153.225647 164.727371,154.123688
	C153.091400,161.204712 141.339645,168.103134 129.858383,175.425980
	C126.547775,177.537521 123.976822,177.508728 120.782722,175.709442
	C117.610657,173.922531 114.224968,172.514847 110.588654,170.858917
z"/>
<path fill="#FFF3DF" opacity="1.000000" stroke="none"
	d="
M144.311630,138.638702
	C139.564651,141.474792 134.692688,143.667450 130.330566,146.614716
	C126.606430,149.130936 123.566643,148.843185 119.749565,146.931763
	C104.893387,139.492416 89.895042,132.336960 74.613617,124.997475
	C66.133453,120.844276 57.989243,116.769501 49.478664,112.511421
	C57.919144,107.078003 65.992165,101.881134 74.086128,96.326828
	C90.072578,103.808113 105.992432,111.743286 122.066948,119.351723
	C123.880386,120.210068 126.910194,119.906494 128.782288,118.963348
	C133.961075,116.354324 138.825668,113.121620 144.123886,110.045135
	C152.710388,114.079613 160.987457,118.204414 169.682327,122.537422
	C160.985413,127.969063 152.696594,133.145844 144.311630,138.638702
z"/>
</svg>
