<?xml version="1.0" standalone="no"?>
<svg xmlns="http://www.w3.org/2000/svg"
 width="225.000000pt" height="225.000000pt" viewBox="0 0 225.000000 225.000000"
 preserveAspectRatio="xMidYMid meet">

<g transform="translate(0.000000,225.000000) scale(0.100000,-0.100000)"
fill="blue" stroke="none">
<path d="M1004 2119 c-66 -26 -263 -105 -439 -175 -176 -69 -325 -130 -330
-134 -15 -13 70 -1179 87 -1195 9 -9 747 -462 800 -492 4 -2 190 107 412 243
378 230 406 249 411 278 2 17 11 130 20 251 8 121 26 375 40 564 14 189 22
348 18 352 -4 4 -51 24 -103 44 -52 20 -185 72 -295 115 -110 44 -268 106
-351 138 l-151 59 -119 -48z m266 -480 c65 -14 139 -64 168 -114 19 -34 22
-51 20 -121 -3 -70 -7 -85 -30 -117 -16 -19 -46 -43 -68 -53 l-40 -18 37 -12
c48 -17 109 -78 129 -130 22 -57 16 -165 -12 -219 -11 -22 -40 -55 -63 -72
-71 -55 -118 -63 -358 -63 l-213 0 0 465 0 465 190 0 c104 0 212 -5 240 -11z"/>
<path d="M970 1405 l0 -135 130 0 c142 0 171 8 209 56 31 40 29 123 -3 161
-34 41 -85 53 -220 53 l-116 0 0 -135z"/>
<path d="M970 990 l0 -172 138 4 c156 4 202 19 236 78 26 45 26 136 0 181 -36
62 -71 74 -231 77 l-143 4 0 -172z"/>
</g>
</svg>
