<?xml version="1.0" encoding="UTF-8"?>
<!DOCTYPE svg PUBLIC "-//W3C//DTD SVG 1.1//EN" "http://www.w3.org/Graphics/SVG/1.1/DTD/svg11.dtd">
<!-- Creator: CorelDRAW 2021 (64-Bit) -->
<svg xmlns="http://www.w3.org/2000/svg" xml:space="preserve" width="60mm" height="70mm" version="1.1" style="shape-rendering:geometricPrecision; text-rendering:geometricPrecision; image-rendering:optimizeQuality; fill-rule:evenodd; clip-rule:evenodd"
viewBox="0 0 6000 7000"
 xmlns:xlink="http://www.w3.org/1999/xlink"
 xmlns:xodm="http://www.corel.com/coreldraw/odm/2003">
 <defs>
  <style type="text/css">
   <![CDATA[
    .fil0 {fill:#3C9ADD}
    .fil1 {fill:#71B3DF}
    .fil3 {fill:#EBF5FD}
    .fil2 {fill:white}
   ]]>
  </style>
 </defs>
 <g id="Layer_x0020_1">
  <metadata id="CorelCorpID_0Corel-Layer"/>
  <path class="fil0" d="M5066.05 5893.78c147.23,-1692.55 294.45,-3385.1 441.68,-5077.65 -1666.67,0 -3333.33,0 -5000,0 148.69,1692.55 297.38,3385.1 446.06,5077.65 687.48,201.05 1374.96,402.11 2062.44,603.16 683.28,-201.05 1366.55,-402.11 2049.82,-603.16z"/>
  <path class="fil1" d="M2994.33 3064.2c0,-657.38 0,-1314.76 0,-1972.14 715.43,0 1430.87,0 2146.3,0 -126.32,1441.53 -252.65,2883.05 -378.97,4324.58 -589.11,159.04 -1178.22,318.09 -1767.33,477.14 0,-743.12 0,-1486.25 0,-2229.37 0,-200.07 0,-400.14 0,-600.21z"/>
  <path class="fil2" d="M4335.18 5089.14c93.21,-1071.23 186.41,-2142.47 279.62,-3213.7 -197.39,0 -394.78,0 -592.17,0 -40.64,443.22 -81.27,886.44 -121.9,1329.66 -304.49,0 -608.97,0 -913.45,0 0,200.07 0,400.14 0,600.21 285.81,0 571.63,0 857.45,0 -44.57,471.46 -89.13,942.91 -133.69,1414.37 208.04,-43.52 416.09,-87.03 624.14,-130.54z"/>
  <path class="fil3" d="M2994.33 3805.31c-457.31,0 -914.61,0 -1371.92,0 -55.9,-643.29 -111.81,-1286.58 -167.71,-1929.87 200.97,0 401.94,0 602.9,0 33.22,443.22 66.44,886.44 99.66,1329.66 279.02,0 558.05,0 837.07,0 0,200.07 0,400.14 0,600.21z"/>
 </g>
</svg>
