<?xml version="1.0" encoding="UTF-8"?>
<svg xmlns="http://www.w3.org/2000/svg" width="160px" height="160px" viewBox="0 0 160 160">
<g id="surface1">
<rect x="0" y="0" width="160" height="160" style="fill:rgb(94.117647%,85.882353%,30.980392%);fill-opacity:1;stroke:none;"/>
<path style=" stroke:none;fill-rule:nonzero;fill:rgb(19.607843%,20%,18.823529%);fill-opacity:1;" d="M 146.90625 121.839844 C 145.734375 114.539062 140.972656 108.410156 126.875 102.691406 C 121.976562 100.441406 116.515625 98.828125 114.890625 95.117188 C 114.3125 92.957031 114.234375 91.742188 114.601562 90.433594 C 115.648438 86.191406 120.714844 84.867188 124.730469 86.082031 C 127.316406 86.949219 129.765625 88.941406 131.238281 92.121094 C 138.144531 87.648438 138.128906 87.679688 142.949219 84.609375 C 141.1875 81.871094 140.242188 80.609375 139.085938 79.4375 C 134.933594 74.796875 129.277344 72.410156 120.226562 72.59375 C 118.660156 72.792969 117.078125 73.003906 115.511719 73.203125 C 110.996094 74.34375 106.691406 76.714844 104.167969 79.894531 C 96.59375 88.488281 98.753906 103.527344 107.96875 109.71875 C 117.050781 116.53125 130.386719 118.082031 132.089844 124.457031 C 133.75 132.257812 126.359375 134.785156 119.011719 133.886719 C 113.597656 132.761719 110.585938 130.007812 107.332031 125.003906 C 101.339844 128.472656 101.339844 128.472656 95.179688 132.015625 C 96.640625 135.210938 98.175781 136.652344 100.625 139.421875 C 112.214844 151.179688 141.214844 150.601562 146.417969 132.804688 C 146.632812 132.199219 148.03125 128.121094 146.90625 121.839844 Z M 86.980469 73.535156 L 72.015625 73.535156 C 72.015625 86.464844 71.953125 99.300781 71.953125 112.226562 C 71.953125 120.457031 72.378906 128 71.042969 130.3125 C 68.851562 134.859375 63.179688 134.296875 60.59375 133.414062 C 57.960938 132.121094 56.625 130.28125 55.074219 127.679688 C 54.648438 126.933594 54.328125 126.355469 54.21875 126.3125 C 50.160156 128.789062 46.113281 131.285156 42.054688 133.765625 C 44.078125 137.917969 47.058594 141.519531 50.875 143.863281 C 56.578125 147.285156 64.242188 148.335938 72.257812 146.496094 C 77.476562 144.972656 81.976562 141.824219 84.335938 137.035156 C 87.742188 130.753906 87.011719 123.148438 86.980469 114.738281 C 87.058594 101.019531 86.980469 87.300781 86.980469 73.535156 Z M 86.980469 73.535156 "/>
</g>
</svg>
