<?xml version="1.0" encoding="UTF-8"?>
<svg xmlns="http://www.w3.org/2000/svg" width="200px" height="200px" viewBox="0 0 200 200">
<g id="surface1">
<path style=" stroke:none;fill-rule:evenodd;fill:rgb(25.490196%,15.686275%,27.45098%);fill-opacity:1;" d="M 100.199219 0 L 6.765625 32.433594 L 20.140625 156.390625 L 100.199219 200 Z M 100.199219 0 "/>
<path style=" stroke:none;fill-rule:evenodd;fill:rgb(29.411765%,19.215686%,30.980392%);fill-opacity:1;" d="M 99.800781 0 L 193.234375 32.433594 L 179.855469 156.390625 L 99.800781 200 Z M 99.800781 0 "/>
<path style=" stroke:none;fill-rule:evenodd;fill:rgb(72.941176%,16.862745%,82.352941%);fill-opacity:1;" d="M 146.570312 68.4375 L 146.554688 68.382812 C 150.820312 73.132812 153.011719 78.773438 153.128906 85.300781 C 153.246094 91.828125 151.054688 98.714844 146.503906 105.9375 C 149.902344 103.292969 153.832031 97.589844 158.269531 88.886719 C 160.1875 106.523438 153.0625 119.917969 136.824219 129.09375 C 142.007812 128.613281 148.890625 125.199219 157.429688 118.839844 C 148.320312 140.773438 131.566406 152.347656 107.175781 153.558594 C 83.601562 153.550781 68.328125 139.386719 68.339844 139.394531 C 58.648438 131.851562 51.980469 122.34375 48.359375 110.914062 C 42.5625 104.585938 42.503906 103.90625 41.90625 101.378906 C 41.308594 98.847656 42.285156 98.140625 43.984375 95.667969 C 45.113281 94.015625 45.382812 91.640625 44.800781 88.585938 C 43.355469 86.585938 42.527344 83.453125 42.308594 79.183594 C 42.308594 77.121094 43.683594 74.945312 46.4375 72.65625 C 49.1875 70.367188 50.878906 68.605469 51.488281 67.394531 C 51.957031 66.734375 52.136719 63.867188 52.03125 58.796875 C 52 53.820312 54.765625 51.109375 60.324219 50.671875 C 68.660156 50.011719 73.363281 43.742188 75.980469 40.890625 C 77.726562 38.992188 80.3125 38.066406 83.570312 38.046875 C 88.160156 37.832031 92.335938 39.59375 95.933594 43.222656 C 104.890625 42.757812 114.070312 45.175781 123.367188 50.410156 C 136.582031 58.257812 143.792969 66.757812 145 75.867188 C 143.585938 87.855469 127.480469 87.539062 96.765625 74.925781 C 80.691406 79.476562 72.785156 89.34375 73.050781 104.523438 C 73.039062 118.453125 79.78125 128.578125 93.230469 134.882812 C 86.675781 128.445312 83.882812 123.039062 84.824219 118.558594 C 98.457031 134.703125 113.988281 140.738281 131.386719 136.664062 C 123.714844 136.929688 117.640625 134.464844 113.066406 129.222656 C 124.828125 128.9375 135.929688 123.476562 146.382812 112.789062 C 140.347656 117.589844 134.03125 119.410156 127.347656 118.265625 C 145.457031 104.027344 151.863281 87.417969 146.570312 68.4375 Z M 113.703125 66.246094 C 115.171875 66.246094 116.359375 65.058594 116.359375 63.589844 C 116.359375 62.121094 115.171875 60.929688 113.703125 60.929688 C 112.234375 60.929688 111.046875 62.121094 111.046875 63.589844 C 111.046875 65.058594 112.234375 66.246094 113.703125 66.246094 Z M 113.703125 66.246094 "/>
</g>
</svg>
