<?xml version="1.0" encoding="UTF-8"?>
<svg xmlns="http://www.w3.org/2000/svg" width="200px" height="210px" viewBox="0 0 200 210">
<defs>
<linearGradient id="linear0" gradientUnits="userSpaceOnUse" x1="53.496" y1="247.701" x2="177.932" y2="115.323" gradientTransform="matrix(0.761035,0,0,0.759452,-9.208524,-4.740822)">
<stop offset="0" style="stop-color:rgb(87.843137%,11.372549%,51.764706%);stop-opacity:1;"/>
<stop offset="0.401" style="stop-color:rgb(87.45098%,11.372549%,52.156863%);stop-opacity:1;"/>
<stop offset="0.77" style="stop-color:rgb(57.647059%,17.254902%,52.941176%);stop-opacity:1;"/>
<stop offset="1" style="stop-color:rgb(36.470588%,18.431373%,53.333333%);stop-opacity:1;"/>
</linearGradient>
<radialGradient id="radial0" gradientUnits="userSpaceOnUse" cx="190.456" cy="80.2" fx="190.456" fy="80.2" r="121.582" gradientTransform="matrix(0.761035,0.00181509,-0.00152207,0.635054,-9.086758,4.892827)">
<stop offset="0" style="stop-color:rgb(87.843137%,11.372549%,51.764706%);stop-opacity:1;"/>
<stop offset="0.139" style="stop-color:rgb(87.058824%,11.764706%,52.156863%);stop-opacity:1;"/>
<stop offset="0.285" style="stop-color:rgb(83.921569%,12.54902%,52.156863%);stop-opacity:1;"/>
<stop offset="0.434" style="stop-color:rgb(78.823529%,13.72549%,52.54902%);stop-opacity:1;"/>
<stop offset="0.586" style="stop-color:rgb(71.764706%,15.294118%,52.54902%);stop-opacity:1;"/>
<stop offset="0.739" style="stop-color:rgb(61.568627%,16.862745%,52.941176%);stop-opacity:1;"/>
<stop offset="0.891" style="stop-color:rgb(48.627451%,18.039216%,53.333333%);stop-opacity:1;"/>
<stop offset="1" style="stop-color:rgb(36.470588%,18.431373%,53.333333%);stop-opacity:1;"/>
</radialGradient>
<linearGradient id="linear1" gradientUnits="userSpaceOnUse" x1="83.212" y1="62.336" x2="137.371" y2="62.336" gradientTransform="matrix(0.761035,0,0,0.759452,-9.208524,-4.740822)">
<stop offset="0" style="stop-color:rgb(87.843137%,11.372549%,51.764706%);stop-opacity:1;"/>
<stop offset="0.238" style="stop-color:rgb(85.490196%,11.764706%,52.156863%);stop-opacity:1;"/>
<stop offset="0.658" style="stop-color:rgb(78.039216%,12.54902%,52.156863%);stop-opacity:1;"/>
<stop offset="0.999" style="stop-color:rgb(70.980392%,13.333333%,51.764706%);stop-opacity:1;"/>
</linearGradient>
</defs>
<g id="surface1">
<path style=" stroke:none;fill-rule:nonzero;fill:rgb(89.019608%,13.333333%,52.54902%);fill-opacity:1;" d="M 13.316406 128.390625 C 9.359375 116.089844 8.21875 103.101562 10.503906 89.734375 C 11.492188 84.191406 13.015625 78.875 14.6875 73.484375 C 14.6875 73.484375 25.191406 39.078125 60.730469 23.359375 C 60.730469 23.359375 72.984375 16.902344 91.398438 16.449219 C 91.398438 16.449219 88.890625 14.019531 87.289062 12.953125 C 78.613281 7.183594 65.675781 5.285156 57.839844 13.410156 C 55.480469 15.839844 53.5 18.5 51.292969 20.929688 C 48.78125 23.664062 45.738281 25.941406 42.238281 27.230469 C 39.191406 28.371094 36.148438 28.144531 33.027344 28.675781 C 29.832031 29.207031 26.558594 30.347656 23.972656 32.394531 C 21.15625 34.675781 20.015625 37.710938 19.710938 41.207031 C 19.40625 43.941406 19.484375 46.75 19.332031 49.484375 C 18.949219 57.535156 16.363281 59.8125 10.578125 64.292969 C 8.144531 66.117188 6.089844 68.546875 4.566406 71.128906 C 0 79.179688 7.304688 87.53125 7.6875 95.660156 C 7.761719 97.328125 7.609375 99 7 100.59375 C 6.394531 102.34375 5.175781 103.480469 4.1875 104.925781 C 2.816406 106.824219 1.902344 109.101562 2.28125 111.457031 C 2.664062 113.808594 3.882812 116.011719 5.023438 118.0625 C 7.230469 121.707031 9.96875 124.972656 12.863281 128.085938 C 13.015625 128.085938 13.164062 128.238281 13.316406 128.390625 "/>
<path style=" stroke:none;fill-rule:nonzero;fill:url(#linear0);" d="M 158.523438 157.554688 C 176.027344 149.960938 183.484375 136.820312 183.484375 136.820312 C 199.847656 114.570312 194.292969 91.101562 194.292969 91.101562 C 183.867188 113.734375 174.351562 119.960938 174.351562 119.960938 C 200 81 174.503906 57.457031 174.503906 57.457031 C 184.929688 79.632812 171.082031 106.671875 171.082031 106.671875 C 159.4375 131.125 142.921875 139.859375 142.921875 139.859375 C 161.339844 143.277344 174.886719 130.898438 174.886719 130.898438 C 148.476562 159.375 119.863281 158.007812 119.863281 158.007812 C 131.886719 171.453125 149.925781 170.3125 149.925781 170.3125 C 126.332031 175.855469 104.1875 168.035156 85.996094 152.921875 C 82.574219 150.113281 79.300781 147.074219 76.253906 143.808594 C 76.253906 143.808594 73.515625 140.921875 72.984375 140.164062 L 72.90625 140.085938 C 72.527344 154.136719 87.214844 167.199219 87.214844 167.199219 C 68.796875 159.605469 60.351562 143.125 60.351562 143.125 C 60.351562 143.125 47.945312 122.011719 56.925781 97.9375 C 65.90625 73.863281 93.074219 68.699219 93.074219 68.699219 C 115.523438 79.558594 134.550781 82.976562 134.550781 82.976562 C 174.65625 89.660156 172.375 70.066406 172.375 70.066406 C 172.753906 53.207031 147.261719 35.28125 147.261719 35.28125 C 101.828125 1.636719 60.730469 23.359375 60.730469 23.359375 C 25.191406 39.078125 14.6875 73.484375 14.6875 73.484375 C 13.015625 78.875 11.492188 84.191406 10.503906 89.734375 C 6.621094 112.289062 12.480469 133.632812 25.191406 152.617188 C 44.976562 182.085938 77.09375 192.261719 77.09375 192.261719 C 124.65625 208.363281 157.152344 184.667969 157.152344 184.667969 C 187.0625 164.160156 193.074219 140.464844 193.074219 140.464844 C 168.949219 159.300781 158.523438 157.554688 158.523438 157.554688 Z M 121.386719 46.75 C 123.667969 46.75 125.496094 48.574219 125.496094 50.851562 C 125.496094 53.128906 123.667969 54.953125 121.386719 54.953125 C 119.101562 54.953125 117.277344 53.128906 117.277344 50.851562 C 117.277344 48.574219 119.101562 46.75 121.386719 46.75 Z M 121.386719 46.75 "/>
<path style=" stroke:none;fill-rule:nonzero;fill:url(#radial0);" d="M 172.296875 69.988281 C 172.679688 53.128906 147.183594 35.207031 147.183594 35.207031 C 101.75 1.636719 60.65625 23.359375 60.65625 23.359375 C 25.113281 39.078125 14.613281 73.484375 14.613281 73.484375 C 12.558594 79.332031 10.730469 88.292969 10.730469 88.292969 C 8.523438 99.53125 9.511719 109.9375 9.511719 109.9375 C 10.425781 119.886719 12.632812 126.570312 12.632812 126.570312 C 14.917969 133.707031 15.980469 135.910156 15.980469 135.910156 C 15.90625 135.683594 15.523438 134.011719 15.523438 134.011719 C 15.523438 134.011719 12.328125 118.671875 15.296875 103.9375 C 15.296875 103.9375 17.882812 88.597656 28.386719 76.75 C 28.386719 76.75 45.433594 52.523438 77.167969 62.015625 C 77.167969 62.015625 84.019531 64.445312 86.378906 65.660156 C 88.738281 66.800781 92.847656 68.546875 92.847656 68.546875 C 115.296875 79.40625 134.324219 82.824219 134.324219 82.824219 C 174.582031 89.582031 172.296875 69.988281 172.296875 69.988281 Z M 121.386719 55.027344 C 119.101562 55.027344 117.277344 53.207031 117.277344 50.925781 C 117.277344 48.648438 119.101562 46.824219 121.386719 46.824219 C 123.667969 46.824219 125.496094 48.648438 125.496094 50.925781 C 125.496094 53.207031 123.667969 55.027344 121.386719 55.027344 Z M 121.386719 55.027344 "/>
<path style=" stroke:none;fill-rule:nonzero;fill:url(#linear1);" d="M 95.359375 39.460938 L 69.40625 31.410156 C 69.253906 31.410156 68.492188 31.03125 67.125 31.410156 C 67.125 31.410156 51.828125 35.28125 54.488281 43.636719 C 54.488281 43.636719 56.089844 48.875 60.425781 53.964844 L 88.964844 52.597656 Z M 95.359375 39.460938 "/>
</g>
</svg>
