<?xml version="1.0" encoding="UTF-8"?>
<svg xmlns="http://www.w3.org/2000/svg" width="160px" height="160px" viewBox="0 0 160 160">
<g id="surface1">
<path style=" stroke:none;fill-rule:nonzero;fill:rgb(0%,47.843137%,80%);fill-opacity:1;" d="M 0 80 L 0 0 L 160 0 L 160 160 L 0 160 "/>
<path style=" stroke:none;fill-rule:nonzero;fill:rgb(100%,100%,100%);fill-opacity:1;" d="M 35.078125 80.28125 L 35.078125 86.800781 L 55.878906 86.800781 L 55.878906 146 L 70.640625 146 L 70.640625 86.800781 L 91.441406 86.800781 L 91.441406 80.398438 C 91.441406 76.800781 91.441406 73.878906 91.28125 73.800781 C 91.28125 73.679688 78.601562 73.640625 63.199219 73.640625 L 35.199219 73.761719 L 35.199219 80.320312 Z M 128.558594 73.601562 C 132.640625 74.558594 135.761719 76.398438 138.558594 79.320312 C 140.039062 80.921875 142.238281 83.71875 142.398438 84.441406 C 142.398438 84.679688 135.480469 89.359375 131.28125 91.960938 C 131.121094 92.078125 130.480469 91.398438 129.839844 90.359375 C 127.761719 87.398438 125.640625 86.121094 122.320312 85.878906 C 117.519531 85.558594 114.320312 88.078125 114.320312 92.28125 C 114.320312 93.558594 114.558594 94.28125 115.039062 95.320312 C 116.121094 97.519531 118.121094 98.839844 124.320312 101.558594 C 135.761719 106.480469 140.71875 109.71875 143.71875 114.359375 C 147.121094 119.558594 147.878906 127.71875 145.601562 133.839844 C 143.039062 140.519531 136.800781 145.039062 127.878906 146.519531 C 125.078125 147 118.679688 146.921875 115.679688 146.398438 C 109.28125 145.199219 103.160156 142 99.398438 137.878906 C 97.921875 136.28125 95.078125 132 95.238281 131.71875 L 96.761719 130.761719 L 102.761719 127.28125 L 107.28125 124.640625 L 108.320312 126.039062 C 109.640625 128.121094 112.601562 130.921875 114.320312 131.878906 C 119.519531 134.558594 126.480469 134.199219 129.921875 131.078125 C 131.398438 129.71875 132.039062 128.28125 132.039062 126.28125 C 132.039062 124.441406 131.761719 123.601562 130.839844 122.199219 C 129.558594 120.441406 127 119 119.800781 115.800781 C 111.519531 112.28125 108 110.039062 104.71875 106.601562 C 102.839844 104.519531 101.121094 101.28125 100.320312 98.601562 C 99.71875 96.28125 99.519531 90.601562 100.078125 88.320312 C 101.800781 80.320312 107.839844 74.71875 116.480469 73.121094 C 119.28125 72.558594 125.878906 72.800781 128.640625 73.519531 Z M 128.558594 73.601562 "/>
</g>
</svg>
