<?xml version="1.0" encoding="UTF-8"?>
<!DOCTYPE svg PUBLIC "-//W3C//DTD SVG 1.1//EN" "http://www.w3.org/Graphics/SVG/1.1/DTD/svg11.dtd">
<!-- Creator: CorelDRAW 2021 (64-Bit) -->
<svg xmlns="http://www.w3.org/2000/svg" xml:space="preserve" width="60mm" height="45mm" version="1.1" style="shape-rendering:geometricPrecision; text-rendering:geometricPrecision; image-rendering:optimizeQuality; fill-rule:evenodd; clip-rule:evenodd"
viewBox="0 0 6000 4500"
 xmlns:xlink="http://www.w3.org/1999/xlink"
 xmlns:xodm="http://www.corel.com/coreldraw/odm/2003">
 <defs>
  <style type="text/css">
   <![CDATA[
    .str0 {stroke:#FEFEFE;stroke-width:70.56;stroke-linecap:round;stroke-linejoin:round;stroke-miterlimit:22.9256}
    .fil2 {fill:url(#id0)}
    .fil0 {fill:url(#id1)}
    .fil1 {fill:url(#id2)}
   ]]>
  </style>
  <linearGradient id="id0" gradientUnits="userSpaceOnUse" x1="1772.04" y1="1320.03" x2="5493.48" y2="1320.03">
   <stop offset="0" style="stop-opacity:1; stop-color:#373435"/>
   <stop offset="0.211765" style="stop-opacity:1; stop-color:#682F5F"/>
   <stop offset="1" style="stop-opacity:1; stop-color:#9A298A"/>
  </linearGradient>
  <linearGradient id="id1" gradientUnits="userSpaceOnUse" x1="730.63" y1="2039.65" x2="1580.04" y2="2030.95">
   <stop offset="0" style="stop-opacity:1; stop-color:#373435"/>
   <stop offset="0.741176" style="stop-opacity:1; stop-color:#682F5F"/>
   <stop offset="1" style="stop-opacity:1; stop-color:#9A298A"/>
  </linearGradient>
  <linearGradient id="id2" gradientUnits="userSpaceOnUse" x1="2765.14" y1="2306.06" x2="1.2" y2="2188.33">
   <stop offset="0" style="stop-opacity:1; stop-color:#373435"/>
   <stop offset="0.411765" style="stop-opacity:1; stop-color:#682F5F"/>
   <stop offset="1" style="stop-opacity:1; stop-color:#9A298A"/>
  </linearGradient>
 </defs>
 <g id="Layer_x0020_1">
  <metadata id="CorelCorpID_0Corel-Layer"/>
  <path class="fil0 str0" d="M1335.16 2295.83c-30.52,-0.01 -200.42,-0.01 -336.48,-0.01 -78.86,-181.98 -157.74,-363.95 -236.61,-545.92 0,0 304.73,0 336.47,0 78.87,181.97 157.74,363.95 236.62,545.93z"/>
  <path class="fil1 str0" d="M3153.57 2295.44l-976.75 1948.98 -1683.32 -3883.9c236.08,0 472.16,0 708.24,0l975.08 2363.72 216.59 -433.13c254.83,0 509.66,0 760.16,4.33z"/>
  <path class="fil2 str0" d="M2670.03 1723.93l689.91 -1379.69c670.71,0 1341.41,0 1723.75,186.81 382.34,186.82 476.32,560.45 367.58,891.29 -108.75,330.83 -420.21,618.88 -837.48,755.27 -417.26,136.39 -940.34,121.13 -1201.87,113.5 -130.77,-3.81 -1247.5,-19.38 -1280.19,-20.33 -7.58,-0.22 -59.31,-0.39 -134.32,-0.52 -75.12,-182.11 -150.25,-364.23 -225.37,-546.34 299.33,0 598.66,0.01 897.99,0.01zm760.17 -0.03l435.88 -871.68c301.38,0 696.91,0.31 868.71,84.26 171.79,83.94 214.02,251.83 165.16,400.48 -48.86,148.66 -188.81,278.09 -376.31,339.37 -187.48,61.29 -422.53,54.43 -540.04,51.01 -58.76,-1.72 -197.12,-2.59 -320.77,-3.01 -79.66,-0.27 -1143.73,-0.37 -1890.79,-0.41"/>
 </g>
</svg>
